<mxfile host="app.diagrams.net" modified="2023-04-09T16:17:56.553Z" agent="Mozilla/5.0 (Windows NT 10.0; Win64; x64) AppleWebKit/537.36 (KHTML, like Gecko) Chrome/112.0.0.0 Safari/537.36" etag="wrQUF5xjr_lC9S-vJ0he" version="21.1.4" type="device">
  <diagram name="Page-1" id="9GHzaPuYWOnwD0LDyBWD">
    <mxGraphModel dx="1302" dy="648" grid="1" gridSize="10" guides="1" tooltips="1" connect="1" arrows="1" fold="1" page="1" pageScale="1" pageWidth="1169" pageHeight="827" math="0" shadow="0">
      <root>
        <mxCell id="0" />
        <mxCell id="1" parent="0" />
        <mxCell id="e0OZC1MZ7Fg7yneGsPiu-2" value="Validator" style="swimlane;fontStyle=0;childLayout=stackLayout;horizontal=1;startSize=26;fillColor=none;horizontalStack=0;resizeParent=1;resizeParentMax=0;resizeLast=0;collapsible=1;marginBottom=0;whiteSpace=wrap;html=1;" vertex="1" parent="1">
          <mxGeometry x="400" y="60" width="820" height="510" as="geometry" />
        </mxCell>
        <mxCell id="e0OZC1MZ7Fg7yneGsPiu-3" value="+ passwordFormatCorrect(password: String): Boolean" style="text;strokeColor=none;fillColor=none;align=left;verticalAlign=top;spacingLeft=4;spacingRight=4;overflow=hidden;rotatable=0;points=[[0,0.5],[1,0.5]];portConstraint=eastwest;whiteSpace=wrap;html=1;" vertex="1" parent="e0OZC1MZ7Fg7yneGsPiu-2">
          <mxGeometry y="26" width="820" height="26" as="geometry" />
        </mxCell>
        <mxCell id="e0OZC1MZ7Fg7yneGsPiu-4" value="+ usernameFormatCorrect(username: String): Boolean" style="text;strokeColor=none;fillColor=none;align=left;verticalAlign=top;spacingLeft=4;spacingRight=4;overflow=hidden;rotatable=0;points=[[0,0.5],[1,0.5]];portConstraint=eastwest;whiteSpace=wrap;html=1;" vertex="1" parent="e0OZC1MZ7Fg7yneGsPiu-2">
          <mxGeometry y="52" width="820" height="26" as="geometry" />
        </mxCell>
        <mxCell id="e0OZC1MZ7Fg7yneGsPiu-5" value="+ authenticate(username: String, password: String): Boolean&lt;br&gt;+ securityQuestionIsCorrect(user: User, answer: String): Boolean&lt;br&gt;+ userExists(user: User): Boolean&lt;br&gt;+ usernameExists(username: String): Boolean&lt;br&gt;+ emailFormatCorrect(email: String): Boolean&lt;br&gt;+ userHasSlogan(user: User): Boolean&lt;br&gt;+ mapCoordinatesValid(x: int, y: int): Boolean&lt;br&gt;+ foodRateValid(rate: int): Boolean&lt;br&gt;+ taxRateValid(rate: int): Boolean&lt;br&gt;+ fearRateValid(rate: int): Boolean&lt;br&gt;+ buildingExistsAtCoordinates(x: int, y: int): Boolean&lt;br&gt;+ unitTypeValid(type: String): Boolean&lt;br&gt;+ unitCountValid(count: int): Boolean&lt;br&gt;+ buildingRepairable(building: Building): Boolean&lt;br&gt;+ unitCoordinatesValid(unit: Unit): Boolean&lt;br&gt;+ canAttackEnemy(enemy: Tribe): Boolean&lt;br&gt;+ canSnipeAtPoint(unit: Unit, x: int, y: int): Boolean&lt;br&gt;+ directionValid(direction: String): Boolean&lt;br&gt;+ equipmentNameValid(name: String): Boolean&lt;br&gt;+ textureTypeValid(type: String): Boolean&lt;br&gt;+ canDropRockAtPoint(x: int, y: int): Boolean&lt;br&gt;+ canDropTreeAtPoint(x: int, y: int): Boolean&lt;br&gt;+ canDropBuildingAtPoint(x: int, y: int): Boolean&lt;br&gt;+ canDropUnitAtPoint(x: int, y: int): Boolean&lt;br&gt;+ tradeTypeValid(type: String): Boolean&lt;br&gt;+ tradeResourceValid(resource: String): Boolean&lt;br&gt;+ tradePriceValid(price: int): Boolean&lt;br&gt;+ tradeIDValid(id: String): Boolean&lt;br&gt;+ canBuyItem(price: int): Boolean&lt;br&gt;" style="text;strokeColor=none;fillColor=none;align=left;verticalAlign=top;spacingLeft=4;spacingRight=4;overflow=hidden;rotatable=0;points=[[0,0.5],[1,0.5]];portConstraint=eastwest;whiteSpace=wrap;html=1;" vertex="1" parent="e0OZC1MZ7Fg7yneGsPiu-2">
          <mxGeometry y="78" width="820" height="432" as="geometry" />
        </mxCell>
      </root>
    </mxGraphModel>
  </diagram>
</mxfile>
